<svg id="Layer_1" enable-background="new 0 0 515.468 515.468" viewBox="0 0 515.468 515.468" xmlns="http://www.w3.org/2000/svg"><g><g><g><path d="m211.467 319.601-108.8 108.8c17.066 12.8 36.267 21.333 59.733 21.333h49.066c8.533 0 17.066-2.133 25.6-4.267v57.6c0 6.4 4.267 10.667 10.667 10.667s10.667-4.267 10.667-10.667v-64s0 0 0-2.133c8.533-4.267 14.934-8.533 21.333-17.066l8.533-8.533c4.267-4.267 4.267-10.667 0-14.934z"/><path d="m130.401 238.534c-2.133-2.133-6.4-4.267-8.533-2.133-6.4 0-10.667 0-21.333 0-4.267 0-6.4 0-8.533 4.267-4.267 6.4-8.533 12.8-12.8 19.2 0 0 0 0-2.133 0h-64c-6.4 0-10.667 4.267-10.667 10.667s4.267 10.667 10.667 10.667h57.6c-2.133 8.533-4.267 17.066-4.267 25.6v49.066c0 23.467 8.533 42.667 21.333 59.733l108.8-108.8z"/><path d="m273.334 163.868c2.133 2.133 4.267 2.133 8.533 2.133 2.133 0 4.267 0 6.4-2.133 4.267-2.133 6.4-8.533 4.267-12.8-6.4-12.8-8.533-23.467-10.667-34.133 0-4.267-4.267-8.533-10.667-8.533h-21.333c-4.267 0-6.4 2.133-8.533 4.267-2.133 2.133-2.133 6.4-2.133 8.533 0 6.4 4.266 12.799 8.533 17.066z"/><path d="m401.334 321.734h38.4c6.4 0 10.667-4.267 10.667-10.667s-4.267-10.667-10.667-10.667h-59.733l-147.2-147.2c-10.667-10.667-17.066-25.6-17.066-40.533v-36.267c0-6.4-4.267-10.667-10.667-10.667 0 0 0 0-2.133 0-6.4-10.667-12.8-21.333-21.333-29.867-19.2-21.333-46.934-34.133-74.667-34.133-23.467 0-46.934 8.533-66.133 23.467-2.133 2.133-4.267 6.4-4.267 8.533 0 4.267 2.133 6.4 4.267 8.533l66.133 38.4c-2.133 19.2-12.8 36.267-32 46.934l-57.6-34.133c-4.267-2.133-8.533-2.133-10.667 0-4.267 2.133-6.4 4.267-6.4 8.533-2.133 29.867 8.533 57.6 29.867 78.934 19.2 21.333 49.066 34.133 76.8 34.133 8.533 0 14.934 0 23.467-4.267l170.667 170.667 115.2 115.2c10.667 10.667 25.6 17.066 40.533 17.066 29.867 0 55.467-25.6 55.467-55.467 0-14.934-6.4-29.867-17.066-40.533z"/><path d="m390.667 279.068c2.133 2.133 4.267 2.133 8.533 2.133h4.267c4.267-2.133 6.4-6.4 6.4-10.667v-27.733c0-4.267-4.267-10.667-8.533-10.667-14.933-.001-25.6-2.134-38.4-8.534-4.267-2.133-10.667 0-12.8 4.267s-2.133 10.667 2.133 12.8z"/><path d="m512.268 112.667c-17.066-17.066-57.6-4.267-78.934 6.4l-32-32c8.533-23.467 21.333-64 6.4-78.934-4.267-4.267-10.667-4.267-14.934 0s-4.267 10.667 0 14.934 0 29.867-10.667 57.6l-68.267 10.667c-4.267 0-8.533 4.267-8.533 10.667-4.266 59.734 49.067 113.067 113.067 113.067 4.267 0 10.667-4.267 10.667-8.533l10.667-68.267c27.733-10.667 53.333-14.934 57.6-10.667s10.667 4.267 14.934 0c4.267-4.268 4.267-10.667 0-14.934z"/></g></g></g><g/><g/><g/><g/><g/><g/><g/><g/><g/><g/><g/><g/><g/><g/><g/></svg>