<svg id="Layer_5" enable-background="new 0 0 64 64" height="512" viewBox="0 0 64 64" width="512" xmlns="http://www.w3.org/2000/svg"><g><path d="m22 42.905c0-1.84-1.284-3.378-3-3.789v-2.116h-2v2.117c-1.716.411-3 1.948-3 3.789 0 1.684 1.073 3.173 2.671 3.705l2.025.676c.781.26 1.304.986 1.304 1.808 0 1.051-.854 1.905-1.905 1.905h-.189c-1.052 0-1.906-.854-1.906-1.905v-1.095h-2v1.095c0 1.84 1.284 3.378 3 3.789v2.116h2v-2.117c1.716-.411 3-1.948 3-3.789 0-1.684-1.073-3.173-2.671-3.705l-2.025-.676c-.781-.26-1.304-.986-1.304-1.808 0-1.051.854-1.905 1.905-1.905h.189c1.052 0 1.906.854 1.906 1.905v.095z"/><path d="m18 33c-7.168 0-13 5.832-13 13s5.832 13 13 13 13-5.832 13-13-5.832-13-13-13zm0 24c-6.065 0-11-4.935-11-11s4.935-11 11-11 11 4.935 11 11-4.935 11-11 11z"/><path d="m43 46c0 1.302.839 2.402 2 2.816v2.184h2v-2.184c1.161-.414 2-1.514 2-2.816 0-1.654-1.346-3-3-3-.462 0-.894.113-1.285.301l-3.008-3.008-1.414 1.414 3.008 3.008c-.188.391-.301.823-.301 1.285zm3-1c.552 0 1 .448 1 1s-.448 1-1 1-1-.448-1-1 .448-1 1-1z"/><path d="m53.228 30.636c.096-.36.205-.723.28-1.077l2.492-.841v-7.437l-2.491-.84c-.56-2.666-1.591-5.162-3.073-7.435l1.164-2.349-5.258-5.257-2.349 1.164c-2.271-1.481-4.767-2.513-7.436-3.074l-.839-2.49h-7.436l-.84 2.491c-2.669.561-5.164 1.593-7.436 3.074l-2.348-1.165-5.258 5.259 1.164 2.349c-1.482 2.272-2.514 4.769-3.073 7.435l-2.491.839v7.437l2.492.84c.075.354.184.717.28 1.077-5.764 2.723-9.772 8.577-9.772 15.364 0 9.374 7.626 17 17 17 5.804 0 10.932-2.927 14.001-7.379 3.155 4.585 8.376 7.379 13.999 7.379 9.374 0 17-7.626 17-17 0-6.787-4.008-12.641-9.772-15.364zm-40.884-2.02-.105-.58-2.239-.754v-4.563l2.238-.755.105-.58c.512-2.801 1.587-5.402 3.197-7.732l.334-.484-1.045-2.11 3.227-3.227 2.11 1.045.484-.335c2.328-1.608 4.93-2.684 7.732-3.197l.58-.106.756-2.238h4.564l.754 2.237.58.106c2.803.513 5.404 1.588 7.732 3.197l.484.335 2.11-1.045 3.227 3.227-1.045 2.11.334.484c1.61 2.33 2.686 4.932 3.197 7.732l.105.58 2.24.755v4.563l-2.238.755-.105.58c-.076.416-.173.84-.281 1.269-.45-.15-.909-.277-1.375-.39v-2.679c1.161-.414 2-1.514 2-2.816 0-1.467-1.059-2.686-2.452-2.945-1.829-8.186-9.076-14.055-17.549-14.055-9.925 0-18 8.075-18 18 0 1.471.187 2.93.544 4.355-.656.136-1.293.32-1.918.53-.109-.428-.206-.853-.282-1.269zm8.446.633c-.515-1.355-.79-2.78-.79-4.249 0-6.617 5.383-12 12-12 5.159 0 9.639 3.234 11.311 8h-.311c-1.654 0-3 1.346-3 3 0 1.302.839 2.402 2 2.816v2.672c-4.037.981-7.61 3.419-9.999 6.891-2.565-3.721-6.575-6.359-11.211-7.13zm-4.251-.175c-.351-1.331-.539-2.696-.539-4.074 0-8.822 7.178-16 16-16 7.362 0 13.689 4.981 15.488 12h-2.079c-1.756-5.924-7.154-10-13.409-10-7.72 0-14 6.28-14 14 0 1.381.205 2.73.596 4.03-.199-.007-.395-.03-.596-.03-.493 0-.978.033-1.461.074zm32.461-4.074h-6c-.552 0-1-.449-1-1s.448-1 1-1h6c.552 0 1 .449 1 1s-.448 1-1 1zm-5 2h4v2.128c-.657-.077-1.322-.128-2-.128-.674 0-1.34.047-2 .126zm-26 34c-8.271 0-15-6.729-15-15s6.729-15 15-15 15 6.729 15 15-6.729 15-15 15zm19.552-22.034 1.377 1.377 1.414-1.414-1.377-1.377c1.667-1.391 3.751-2.294 6.034-2.501v1.949h2v-1.949c2.283.207 4.366 1.111 6.034 2.501l-1.377 1.377 1.414 1.414 1.377-1.377c1.391 1.667 2.294 3.751 2.501 6.034h-1.949v2h1.949c-.207 2.283-1.111 4.366-2.501 6.034l-1.377-1.377-1.414 1.414 1.377 1.377c-1.667 1.391-3.751 2.294-6.034 2.501v-1.949h-2v1.949c-2.283-.207-4.366-1.111-6.034-2.501l1.377-1.377-1.414-1.414-1.377 1.377c-1.391-1.667-2.294-3.751-2.501-6.034h1.949v-2h-1.949c.207-2.283 1.11-4.366 2.501-6.034zm8.448 22.034c-5.278 0-10.155-2.789-12.861-7.304.392-.768.731-1.565 1.004-2.394 2.033 4.53 6.578 7.698 11.857 7.698 7.168 0 13-5.832 13-13s-5.832-13-13-13c-5.279 0-9.824 3.168-11.858 7.698-.273-.829-.612-1.627-1.004-2.394 2.707-4.515 7.584-7.304 12.862-7.304 8.271 0 15 6.729 15 15s-6.729 15-15 15z"/><path d="m22 25h2c0-3.06 1.703-5.807 4.445-7.169l-.891-1.791c-3.425 1.703-5.554 5.136-5.554 8.96z"/><path d="m30.222 17.198c.58-.131 1.178-.198 1.778-.198v-2c-.749 0-1.496.083-2.222.248z"/></g></svg>